<mxfile host="Electron" agent="Mozilla/5.0 (Macintosh; Intel Mac OS X 10_15_7) AppleWebKit/537.36 (KHTML, like Gecko) draw.io/26.0.9 Chrome/128.0.6613.186 Electron/32.2.5 Safari/537.36" version="26.0.9">
  <diagram name="Страница — 1" id="GNFxMnvJDN0ZckbG5PGK">
    <mxGraphModel dx="795" dy="606" grid="1" gridSize="10" guides="1" tooltips="1" connect="1" arrows="1" fold="1" page="1" pageScale="1" pageWidth="827" pageHeight="1169" math="0" shadow="0">
      <root>
        <mxCell id="0" />
        <mxCell id="1" parent="0" />
        <mxCell id="lqKorKYV-yW4ylJXSVBB-7" style="edgeStyle=orthogonalEdgeStyle;rounded=0;orthogonalLoop=1;jettySize=auto;html=1;" parent="1" source="lqKorKYV-yW4ylJXSVBB-1" target="lqKorKYV-yW4ylJXSVBB-2" edge="1">
          <mxGeometry relative="1" as="geometry" />
        </mxCell>
        <mxCell id="lqKorKYV-yW4ylJXSVBB-8" style="edgeStyle=orthogonalEdgeStyle;rounded=0;orthogonalLoop=1;jettySize=auto;html=1;" parent="1" source="lqKorKYV-yW4ylJXSVBB-1" target="lqKorKYV-yW4ylJXSVBB-3" edge="1">
          <mxGeometry relative="1" as="geometry" />
        </mxCell>
        <mxCell id="lqKorKYV-yW4ylJXSVBB-9" style="edgeStyle=orthogonalEdgeStyle;rounded=0;orthogonalLoop=1;jettySize=auto;html=1;" parent="1" source="lqKorKYV-yW4ylJXSVBB-1" target="lqKorKYV-yW4ylJXSVBB-4" edge="1">
          <mxGeometry relative="1" as="geometry" />
        </mxCell>
        <mxCell id="lqKorKYV-yW4ylJXSVBB-10" style="edgeStyle=orthogonalEdgeStyle;rounded=0;orthogonalLoop=1;jettySize=auto;html=1;" parent="1" source="lqKorKYV-yW4ylJXSVBB-1" target="lqKorKYV-yW4ylJXSVBB-5" edge="1">
          <mxGeometry relative="1" as="geometry" />
        </mxCell>
        <mxCell id="lqKorKYV-yW4ylJXSVBB-11" style="edgeStyle=orthogonalEdgeStyle;rounded=0;orthogonalLoop=1;jettySize=auto;html=1;" parent="1" source="lqKorKYV-yW4ylJXSVBB-1" target="lqKorKYV-yW4ylJXSVBB-6" edge="1">
          <mxGeometry relative="1" as="geometry">
            <mxPoint x="710" y="390" as="targetPoint" />
          </mxGeometry>
        </mxCell>
        <mxCell id="lqKorKYV-yW4ylJXSVBB-1" value="Супервизор" style="html=1;whiteSpace=wrap;fillColor=#dae8fc;strokeColor=#6c8ebf;" parent="1" vertex="1">
          <mxGeometry x="359" y="310" width="110" height="50" as="geometry" />
        </mxCell>
        <mxCell id="lqKorKYV-yW4ylJXSVBB-17" style="edgeStyle=orthogonalEdgeStyle;rounded=0;orthogonalLoop=1;jettySize=auto;html=1;" parent="1" source="lqKorKYV-yW4ylJXSVBB-2" target="lqKorKYV-yW4ylJXSVBB-16" edge="1">
          <mxGeometry relative="1" as="geometry" />
        </mxCell>
        <mxCell id="lqKorKYV-yW4ylJXSVBB-2" value="Агент аплоадер" style="html=1;whiteSpace=wrap;" parent="1" vertex="1">
          <mxGeometry x="40" y="400" width="110" height="50" as="geometry" />
        </mxCell>
        <mxCell id="lqKorKYV-yW4ylJXSVBB-14" style="edgeStyle=orthogonalEdgeStyle;rounded=0;orthogonalLoop=1;jettySize=auto;html=1;" parent="1" source="lqKorKYV-yW4ylJXSVBB-3" target="lqKorKYV-yW4ylJXSVBB-12" edge="1">
          <mxGeometry relative="1" as="geometry" />
        </mxCell>
        <mxCell id="lqKorKYV-yW4ylJXSVBB-15" style="edgeStyle=orthogonalEdgeStyle;rounded=0;orthogonalLoop=1;jettySize=auto;html=1;" parent="1" source="lqKorKYV-yW4ylJXSVBB-3" target="lqKorKYV-yW4ylJXSVBB-13" edge="1">
          <mxGeometry relative="1" as="geometry" />
        </mxCell>
        <mxCell id="lqKorKYV-yW4ylJXSVBB-3" value="Агент BA" style="html=1;whiteSpace=wrap;" parent="1" vertex="1">
          <mxGeometry x="200" y="400" width="110" height="50" as="geometry" />
        </mxCell>
        <mxCell id="lqKorKYV-yW4ylJXSVBB-4" value="Агент QA" style="html=1;whiteSpace=wrap;" parent="1" vertex="1">
          <mxGeometry x="359" y="400" width="110" height="50" as="geometry" />
        </mxCell>
        <mxCell id="lqKorKYV-yW4ylJXSVBB-5" value="Агент FE" style="html=1;whiteSpace=wrap;" parent="1" vertex="1">
          <mxGeometry x="520" y="400" width="110" height="50" as="geometry" />
        </mxCell>
        <mxCell id="lqKorKYV-yW4ylJXSVBB-6" value="Агент SA" style="html=1;whiteSpace=wrap;" parent="1" vertex="1">
          <mxGeometry x="680" y="400" width="110" height="50" as="geometry" />
        </mxCell>
        <mxCell id="lqKorKYV-yW4ylJXSVBB-12" value="find_related_docs" style="swimlane;whiteSpace=wrap;html=1;" parent="1" vertex="1" collapsed="1">
          <mxGeometry x="185" y="470" width="140" height="30" as="geometry">
            <mxRectangle x="40" y="470" width="110" height="200" as="alternateBounds" />
          </mxGeometry>
        </mxCell>
        <mxCell id="lqKorKYV-yW4ylJXSVBB-13" value="get_all_brs" style="swimlane;whiteSpace=wrap;html=1;" parent="1" vertex="1" collapsed="1">
          <mxGeometry x="185" y="520" width="140" height="30" as="geometry">
            <mxRectangle x="40" y="470" width="110" height="200" as="alternateBounds" />
          </mxGeometry>
        </mxCell>
        <mxCell id="lqKorKYV-yW4ylJXSVBB-16" value="process_document" style="swimlane;whiteSpace=wrap;html=1;" parent="1" vertex="1" collapsed="1">
          <mxGeometry x="25" y="470" width="140" height="30" as="geometry">
            <mxRectangle x="25" y="470" width="110" height="200" as="alternateBounds" />
          </mxGeometry>
        </mxCell>
      </root>
    </mxGraphModel>
  </diagram>
</mxfile>
